<svg id="Layer_1" data-name="Layer 1" xmlns="http://www.w3.org/2000/svg" viewBox="0 0 366 349">
  <defs>
    <style>
      .cls-1 {
        fill: #e3eafa;
      }
    </style>
  </defs>
  <title>arrow_dashboard</title>
  <g>
    <path class="cls-1" d="M3.1,349a3.1,3.1,0,0,1-1-6C114.4,305.8,203,246.4,265.6,166.3,315.8,102,335.5,41.2,343.9,15.3l.4-1.4a3.1,3.1,0,0,1,5.9,1.9l-.4,1.4c-8.5,26.3-28.4,87.8-79.4,153-63.3,81.1-153,141.2-266.4,178.7Z"/>
    <path class="cls-1" d="M362.9,29.5a3.1,3.1,0,0,1-2.7-1.7L349.7,7.2,329.1,17.7a3.1,3.1,0,1,1-2.8-5.5L349.6.3a3.1,3.1,0,0,1,4.1,1.3L365.7,25a3.1,3.1,0,0,1-2.7,4.5Z"/>
  </g>
</svg>
