<svg id="Layer_1" data-name="Layer 1" xmlns="http://www.w3.org/2000/svg" viewBox="0 0 96 96">
  <defs>
    <style>
      .cls-1 {
        fill: #7395e5;
      }

      .cls-2 {
        fill: #abbfef;
      }

      .cls-3 {
        fill: #e3eafa;
      }
    </style>
  </defs>
  <title>icon_klip_r-01</title>
  <g>
    <g>
      <rect class="cls-1" x="55" y="28" width="7" height="10"/>
      <rect class="cls-1" x="65" y="16" width="7" height="22"/>
      <rect class="cls-1" x="75" y="6" width="7" height="32"/>
      <rect class="cls-1" x="85" y="13" width="7" height="25"/>
    </g>
    <g>
      <rect class="cls-1" x="4" y="55" width="13" height="7"/>
      <rect class="cls-1" x="4" y="65" width="27" height="7"/>
      <rect class="cls-1" x="4" y="75" width="36" height="7"/>
      <rect class="cls-1" x="4" y="85" width="30" height="7"/>
    </g>
    <g>
      <path class="cls-1" d="M21,3a18,18,0,1,0,8.56,33.84L21,21Z"/>
      <path class="cls-2" d="M39,21A18,18,0,0,0,21,3V21Z"/>
      <path class="cls-3" d="M39,21H21l8.56,15.84A18,18,0,0,0,39,21Z"/>
    </g>
    <g>
      <path class="cls-1" d="M90,58a3,3,0,0,0-1.5.42L86,57a3,3,0,0,0-6,0c0,.1,0,.19,0,.28l-2.79,2a2.88,2.88,0,0,0-1.79-.22L72.82,56A3,3,0,1,0,67,55a3,3,0,0,0,.07.62l-6.15,5.54A2.95,2.95,0,0,0,57,63.57l-5.2,2.08A3,3,0,1,0,53,68.43l5.2-2.08A3,3,0,0,0,63,64a3,3,0,0,0-.07-.62l6.15-5.54A3,3,0,0,0,70,58a3,3,0,0,0,.55-.06L73.18,61A3,3,0,1,0,79,62c0-.1,0-.19,0-.28l2.79-2a2.92,2.92,0,0,0,2.74-.14L87,61a3,3,0,1,0,3-3Z"/>
      <path class="cls-1" d="M90,80a3,3,0,0,0-.35,0l-2.89-3.86a3,3,0,0,0-4.26-3.76L80,71a3,3,0,1,0-5.45,1.73L69.73,83a3,3,0,0,0-1.05.29L64,80.18c0-.06,0-.12,0-.18a3,3,0,0,0-5.91-.69l-5.82,1.75a3,3,0,1,0,.54,3L59,82.18a2.94,2.94,0,0,0,3.37.5L67,85.82c0,.06,0,.12,0,.18a3,3,0,1,0,5.46-1.72L77.27,74a3,3,0,0,0,1.23-.39L81,75a3,3,0,0,0,3,3,3,3,0,0,0,.35,0l2.89,3.86A3,3,0,1,0,90,80Z"/>
    </g>
  </g>
</svg>
